<svg width="1093" height="668" viewBox="0 0 1093 668" fill="none" xmlns="http://www.w3.org/2000/svg">
<g clip-path="url(#clip0)">
<path d="M98.0998 635.941L96.6286 635.213C96.3053 635.052 64.1283 618.762 49.0553 581.825C33.9816 544.887 41.3625 500.413 41.4388 499.969L41.7862 497.943L43.2567 498.672C43.58 498.833 75.7562 515.123 90.83 552.06C105.904 588.998 98.5228 633.472 98.4465 633.916L98.0998 635.941ZM51.469 580.106C64.2127 611.336 89.6399 627.344 96.0824 630.999C97.3072 621.875 101.149 584.979 88.4163 553.779C75.6853 522.582 50.2481 506.549 43.8029 502.886C42.5773 512.015 38.7373 548.907 51.469 580.106Z" fill="#3F3D56"/>
<path d="M60.5745 568.869C87.6628 590.403 98.0953 633.177 98.0953 633.177C98.0953 633.177 64.6091 641.036 37.5208 619.501C10.4325 597.967 0 555.193 0 555.193C0 555.193 33.4862 547.334 60.5745 568.869Z" fill="#D0CDE1"/>
<path d="M927.491 8.2266H625.426V0H488.458V8.2266H185.147C182.464 8.2266 179.807 8.92496 177.328 10.2818C174.849 11.6386 172.597 13.6273 170.699 16.1344C168.802 18.6414 167.297 21.6178 166.27 24.8934C165.243 28.169 164.715 31.6799 164.715 35.2254V581.77C164.715 588.93 166.868 595.797 170.699 600.861C174.531 605.924 179.728 608.768 185.147 608.768H927.491C930.174 608.768 932.831 608.07 935.31 606.713C937.789 605.357 940.041 603.368 941.939 600.861C943.836 598.354 945.341 595.377 946.368 592.102C947.395 588.826 947.923 585.315 947.923 581.77V35.2254C947.923 31.6798 947.395 28.169 946.368 24.8934C945.341 21.6177 943.836 18.6414 941.939 16.1343C940.041 13.6273 937.789 11.6386 935.31 10.2817C932.831 8.92494 930.174 8.22659 927.491 8.2266V8.2266Z" fill="#3F3D56"/>
<path d="M920.53 55.9409H192.108V598.897H920.53V55.9409Z" fill="#6C63FF"/>
<path d="M555.697 41.133C559.823 41.133 563.168 36.7132 563.168 31.2611C563.168 25.809 559.823 21.3892 555.697 21.3892C551.57 21.3892 548.226 25.809 548.226 31.2611C548.226 36.7132 551.57 41.133 555.697 41.133Z" fill="#6C63FF"/>
<path d="M878.713 125.044H844.184V79.4185H878.713V125.044ZM845.685 123.06H877.211V81.4022H845.685V123.06Z" fill="#3F3D56"/>
<path d="M968.376 589.025H897.287V582.257C897.287 582.081 897.261 581.906 897.209 581.743C897.158 581.581 897.084 581.433 896.989 581.308C896.895 581.184 896.783 581.085 896.66 581.017C896.537 580.95 896.405 580.915 896.271 580.915H871.898C871.764 580.915 871.632 580.95 871.509 581.017C871.386 581.085 871.274 581.184 871.18 581.308C871.085 581.433 871.011 581.581 870.96 581.743C870.909 581.906 870.882 582.081 870.882 582.257V589.025H855.649V582.257C855.649 582.081 855.623 581.906 855.572 581.743C855.521 581.581 855.446 581.433 855.351 581.308C855.257 581.184 855.145 581.085 855.022 581.017C854.899 580.95 854.767 580.915 854.633 580.915H830.26C830.127 580.915 829.994 580.95 829.871 581.017C829.748 581.085 829.636 581.184 829.542 581.308C829.447 581.433 829.373 581.581 829.322 581.743C829.271 581.906 829.244 582.081 829.244 582.257V589.025H814.011V582.257C814.011 582.081 813.985 581.906 813.934 581.743C813.883 581.581 813.808 581.433 813.713 581.308C813.619 581.184 813.507 581.085 813.384 581.017C813.261 580.95 813.129 580.915 812.995 580.915H788.622C788.488 580.915 788.356 580.95 788.233 581.017C788.11 581.085 787.998 581.184 787.904 581.308C787.809 581.433 787.735 581.581 787.684 581.743C787.633 581.906 787.606 582.081 787.606 582.257V589.025H772.373V582.257C772.373 582.081 772.347 581.906 772.296 581.743C772.245 581.581 772.17 581.433 772.076 581.308C771.981 581.184 771.869 581.085 771.746 581.017C771.623 580.95 771.491 580.915 771.357 580.915H746.984C746.851 580.915 746.719 580.95 746.595 581.017C746.472 581.085 746.36 581.184 746.266 581.308C746.172 581.433 746.097 581.581 746.046 581.743C745.995 581.906 745.968 582.081 745.968 582.257V589.025H730.735V582.257C730.735 582.081 730.709 581.906 730.658 581.743C730.607 581.581 730.532 581.433 730.438 581.308C730.343 581.184 730.231 581.085 730.108 581.017C729.985 580.95 729.853 580.915 729.719 580.915H705.346C705.213 580.915 705.081 580.95 704.957 581.017C704.834 581.085 704.722 581.184 704.628 581.308C704.534 581.433 704.459 581.581 704.408 581.743C704.357 581.906 704.33 582.081 704.33 582.257V589.025H689.097V582.257C689.097 582.081 689.071 581.906 689.02 581.743C688.969 581.581 688.894 581.433 688.8 581.308C688.705 581.184 688.593 581.085 688.47 581.017C688.347 580.95 688.215 580.915 688.081 580.915H663.708C663.575 580.915 663.443 580.95 663.319 581.017C663.196 581.085 663.084 581.184 662.99 581.308C662.896 581.433 662.821 581.581 662.77 581.743C662.719 581.906 662.693 582.081 662.693 582.257V589.025H647.459V582.257C647.459 582.081 647.433 581.906 647.382 581.743C647.331 581.581 647.256 581.433 647.162 581.308C647.067 581.184 646.955 581.085 646.832 581.017C646.709 580.95 646.577 580.915 646.444 580.915H455.518C455.385 580.915 455.253 580.95 455.13 581.017C455.007 581.085 454.895 581.184 454.8 581.308C454.706 581.433 454.631 581.581 454.58 581.743C454.529 581.906 454.503 582.081 454.503 582.257V589.025H439.269V582.257C439.269 582.081 439.243 581.906 439.192 581.743C439.141 581.581 439.066 581.433 438.972 581.308C438.878 581.184 438.766 581.085 438.642 581.017C438.519 580.95 438.387 580.915 438.254 580.915H413.88C413.747 580.915 413.615 580.95 413.492 581.017C413.369 581.085 413.257 581.184 413.162 581.308C413.068 581.433 412.993 581.581 412.942 581.743C412.891 581.906 412.865 582.081 412.865 582.257V589.025H397.631V582.257C397.631 582.081 397.605 581.906 397.554 581.743C397.503 581.581 397.428 581.433 397.334 581.308C397.24 581.184 397.128 581.085 397.005 581.017C396.881 580.95 396.749 580.915 396.616 580.915H372.242C372.109 580.915 371.977 580.95 371.854 581.017C371.731 581.085 371.619 581.184 371.524 581.308C371.43 581.433 371.355 581.581 371.304 581.743C371.253 581.906 371.227 582.081 371.227 582.257V589.025H355.994V582.257C355.994 582.081 355.967 581.906 355.916 581.743C355.865 581.581 355.79 581.433 355.696 581.308C355.602 581.184 355.49 581.085 355.367 581.017C355.243 580.95 355.111 580.915 354.978 580.915H330.605C330.471 580.915 330.339 580.95 330.216 581.017C330.093 581.085 329.981 581.184 329.886 581.308C329.792 581.433 329.717 581.581 329.666 581.743C329.615 581.906 329.589 582.081 329.589 582.257V589.025H314.356V582.257C314.356 582.081 314.329 581.906 314.278 581.743C314.227 581.581 314.152 581.433 314.058 581.308C313.964 581.184 313.852 581.085 313.729 581.017C313.605 580.95 313.473 580.915 313.34 580.915H288.967C288.833 580.915 288.701 580.95 288.578 581.017C288.455 581.085 288.343 581.184 288.248 581.308C288.154 581.433 288.079 581.581 288.028 581.743C287.977 581.906 287.951 582.081 287.951 582.257V589.025H272.718V582.257C272.718 582.081 272.691 581.906 272.64 581.743C272.589 581.581 272.514 581.433 272.42 581.308C272.326 581.184 272.214 581.085 272.091 581.017C271.967 580.95 271.835 580.915 271.702 580.915H247.329C247.195 580.915 247.063 580.95 246.94 581.017C246.817 581.085 246.705 581.184 246.61 581.308C246.516 581.433 246.441 581.581 246.39 581.743C246.339 581.906 246.313 582.081 246.313 582.257V589.025H231.08V582.257C231.08 582.081 231.053 581.906 231.002 581.743C230.951 581.581 230.877 581.433 230.782 581.308C230.688 581.184 230.576 581.085 230.453 581.017C230.33 580.95 230.197 580.915 230.064 580.915H205.691C205.557 580.915 205.425 580.95 205.302 581.017C205.179 581.085 205.067 581.184 204.973 581.308C204.878 581.433 204.803 581.581 204.752 581.743C204.701 581.906 204.675 582.081 204.675 582.257V589.025H157.959C151.495 589.025 145.296 592.418 140.725 598.458C136.154 604.498 133.586 612.69 133.586 621.231V635.794C133.586 644.336 136.154 652.527 140.725 658.567C145.296 664.607 151.495 668 157.959 668H968.376C974.84 668 981.04 664.607 985.611 658.567C990.182 652.527 992.749 644.336 992.749 635.794V621.231C992.749 612.69 990.182 604.498 985.611 598.458C981.04 592.418 974.84 589.025 968.376 589.025V589.025Z" fill="#3F3D56"/>
<path d="M1093 634.959H33.335V639.232H1093V634.959Z" fill="#3F3D56"/>
<path d="M875.501 358.486H640.973V182.059H875.501V358.486ZM643.295 355.418H873.179V185.127H643.295V355.418Z" fill="#3F3D56"/>
<path d="M445.919 393.771H236.934V221.946H445.919V393.771ZM239.256 390.703H443.597V225.015H239.256V390.703Z" fill="#3F3D56"/>
<path d="M334.57 327.803L334.37 324.372C333.771 317.248 335.568 309.464 340.56 301.549C345.054 294.555 347.55 289.41 347.55 283.473C347.55 276.744 344.355 272.259 338.064 272.127C334.466 272.108 330.949 273.534 327.979 276.217L325.583 267.905C328.878 264.738 334.57 262.627 339.861 262.627C351.344 262.627 356.536 271.995 356.536 282.021C356.536 290.994 352.741 297.458 347.949 304.978C343.556 311.838 341.958 317.644 342.257 324.372L342.357 327.803L334.57 327.803ZM332.373 346.274C332.319 345.198 332.435 344.118 332.713 343.104C332.991 342.09 333.425 341.163 333.988 340.382C334.551 339.601 335.231 338.982 335.984 338.566C336.737 338.149 337.547 337.944 338.363 337.962C341.858 337.962 344.255 341.391 344.255 346.274C344.288 347.332 344.159 348.388 343.875 349.379C343.591 350.369 343.159 351.274 342.604 352.038C342.049 352.802 341.383 353.41 340.646 353.825C339.908 354.24 339.115 354.455 338.314 354.455C337.512 354.455 336.719 354.24 335.982 353.825C335.245 353.41 334.579 352.802 334.024 352.038C333.469 351.274 333.037 350.369 332.753 349.379C332.469 348.388 332.34 347.332 332.373 346.274V346.274Z" fill="#D0CDE1"/>
<path d="M751.38 289.449L751.18 286.019C750.582 278.895 752.379 271.11 757.371 263.195C761.864 256.201 764.36 251.057 764.36 245.119C764.36 238.391 761.165 233.905 754.875 233.774C751.277 233.754 747.76 235.181 744.79 237.864L742.394 229.552C745.689 226.384 751.38 224.273 756.672 224.273C768.155 224.273 773.346 233.642 773.346 243.668C773.346 252.64 769.552 259.105 764.759 266.624C760.366 273.485 758.769 279.29 759.068 286.018L759.168 289.449L751.38 289.449ZM749.184 307.921C749.13 306.844 749.246 305.765 749.524 304.751C749.802 303.736 750.236 302.809 750.799 302.028C751.362 301.247 752.041 300.629 752.794 300.212C753.548 299.796 754.358 299.59 755.174 299.609C758.669 299.609 761.065 303.038 761.065 307.921C761.098 308.979 760.969 310.035 760.685 311.025C760.402 312.016 759.969 312.92 759.415 313.684C758.86 314.448 758.194 315.056 757.456 315.472C756.719 315.887 755.926 316.101 755.124 316.101C754.323 316.101 753.53 315.887 752.793 315.472C752.055 315.056 751.389 314.448 750.834 313.684C750.279 312.92 749.847 312.016 749.563 311.025C749.28 310.035 749.151 308.979 749.184 307.921V307.921Z" fill="#D0CDE1"/>
<path d="M560.422 532.566C615.755 532.566 660.61 473.295 660.61 400.181C660.61 327.067 615.755 267.796 560.422 267.796C505.09 267.796 460.234 327.067 460.234 400.181C460.234 473.295 505.09 532.566 560.422 532.566Z" fill="#2F2E41"/>
<path d="M521.727 581.47L491.775 574.306L501.49 491.67L531.44 498.835L521.727 581.47Z" fill="#2F2E41"/>
<path d="M591.341 513.163L561.391 505.999L551.677 576.904L581.627 584.069L591.341 513.163Z" fill="#2F2E41"/>
<path d="M601.645 587.931C602.685 581.127 592.396 572.642 578.665 568.979C564.934 565.317 552.96 567.863 551.92 574.667C550.881 581.471 561.169 589.956 574.901 593.619C588.632 597.282 600.606 594.735 601.645 587.931Z" fill="#2F2E41"/>
<path d="M539.264 585.794C539.954 578.913 529.256 571.364 515.369 568.933C501.482 566.502 489.666 570.11 488.976 576.991C488.286 583.872 498.984 591.421 512.871 593.852C526.758 596.283 538.575 592.675 539.264 585.794Z" fill="#2F2E41"/>
<path d="M567.436 413.044C586.347 413.044 601.677 392.787 601.677 367.799C601.677 342.81 586.347 322.553 567.436 322.553C548.525 322.553 533.194 342.81 533.194 367.799C533.194 392.787 548.525 413.044 567.436 413.044Z" fill="white"/>
<path d="M581.509 366.663C587.813 366.663 592.923 359.91 592.923 351.581C592.923 343.251 587.813 336.499 581.509 336.499C575.206 336.499 570.096 343.251 570.096 351.581C570.096 359.91 575.206 366.663 581.509 366.663Z" fill="#3F3D56"/>
<path d="M481.388 256.16C479.881 207.149 511.849 165.636 552.789 163.439C593.729 161.242 628.139 199.191 629.646 248.202C631.152 297.213 602.694 308.349 561.753 310.547C520.813 312.744 482.895 305.171 481.388 256.16Z" fill="white"/>
<path d="M656.446 396.317C683.412 388.15 703.7 372.46 701.76 361.274C699.819 350.088 676.385 347.641 649.419 355.808C622.452 363.976 602.164 379.665 604.104 390.852C606.045 402.038 629.479 404.485 656.446 396.317Z" fill="#2F2E41"/>
<path d="M459.78 439.533C486.746 431.365 507.034 415.676 505.094 404.489C503.153 393.303 479.719 390.856 452.753 399.024C425.786 407.191 405.498 422.881 407.438 434.067C409.379 445.253 432.813 447.701 459.78 439.533Z" fill="#2F2E41"/>
<path d="M532.905 452.352C532.371 456.25 532.423 460.249 533.059 464.12C533.694 467.991 534.901 471.659 536.609 474.914C538.317 478.169 540.494 480.948 543.015 483.091C545.536 485.235 548.352 486.701 551.301 487.407C554.251 488.112 557.277 488.043 560.207 487.204C563.137 486.364 565.912 484.77 568.376 482.513C570.839 480.256 572.942 477.379 574.564 474.048C576.187 470.717 577.296 466.997 577.83 463.099C580.076 446.706 570.484 440.906 558.079 437.938C545.673 434.971 535.151 435.96 532.905 452.352Z" fill="white"/>
<path d="M344.155 20.1313H179.42V227.191H344.155V20.1313Z" fill="#D0CDE1"/>
<path d="M325.435 44.8672H198.14V173.494H325.435V44.8672Z" fill="white"/>
<path d="M267.254 188.669H198.014V193.484H267.254V188.669Z" fill="#F2F2F2"/>
<path d="M267.254 203.115H198.014V207.93H267.254V203.115Z" fill="#F2F2F2"/>
<path d="M220.79 128.477C228.84 128.477 235.367 119.853 235.367 109.216C235.367 98.5777 228.84 89.9541 220.79 89.9541C212.739 89.9541 206.213 98.5777 206.213 109.216C206.213 119.853 212.739 128.477 220.79 128.477Z" fill="#3F3D56"/>
<path d="M261.788 128.477C269.838 128.477 276.365 119.853 276.365 109.216C276.365 98.5777 269.838 89.9541 261.788 89.9541C253.737 89.9541 247.211 98.5777 247.211 109.216C247.211 119.853 253.737 128.477 261.788 128.477Z" fill="#6C63FF"/>
<path d="M302.785 128.477C310.835 128.477 317.362 119.853 317.362 109.216C317.362 98.5777 310.835 89.9541 302.785 89.9541C294.734 89.9541 288.208 98.5777 288.208 109.216C288.208 119.853 294.734 128.477 302.785 128.477Z" fill="#E6E6E6"/>
<path d="M261.787 41.8005C265.813 41.8005 269.076 37.4887 269.076 32.1698C269.076 26.8509 265.813 22.5391 261.787 22.5391C257.762 22.5391 254.499 26.8509 254.499 32.1698C254.499 37.4887 257.762 41.8005 261.787 41.8005Z" fill="#3F3D56"/>
<path d="M422.51 421.061H257.774V628.121H422.51V421.061Z" fill="#D0CDE1"/>
<path d="M403.79 445.797H276.495V574.424H403.79V445.797Z" fill="white"/>
<path d="M349.132 466.935H304.506V525.903H349.132V466.935Z" fill="#6C63FF"/>
<path d="M321.59 481.681V553.285H375.779V481.681H321.59ZM373.429 550.179H323.94V484.787H373.429V550.179Z" fill="#3F3D56"/>
<path d="M345.608 587.191H276.368V592.006H345.608V587.191Z" fill="#F2F2F2"/>
<path d="M340.142 442.73C344.167 442.73 347.43 438.418 347.43 433.099C347.43 427.781 344.167 423.469 340.142 423.469C336.117 423.469 332.854 427.781 332.854 433.099C332.854 438.418 336.117 442.73 340.142 442.73Z" fill="#3F3D56"/>
<path d="M851.412 359.072H686.677V566.132H851.412V359.072Z" fill="#D0CDE1"/>
<path d="M832.692 383.808H705.396V512.435H832.692V383.808Z" fill="white"/>
<path d="M782.736 484.504H755.352V495.227H782.736V484.504Z" fill="#3F3D56"/>
<path d="M815.844 401.016H722.245V405.612H815.844V401.016Z" fill="#3F3D56"/>
<path d="M815.844 415.569H722.245V420.164H815.844V415.569Z" fill="#3F3D56"/>
<path d="M815.844 430.122H722.245V434.717H815.844V430.122Z" fill="#3F3D56"/>
<path d="M815.844 444.675H722.245V449.27H815.844V444.675Z" fill="#3F3D56"/>
<path d="M815.844 459.228H722.245V463.823H815.844V459.228Z" fill="#3F3D56"/>
<path d="M774.511 525.202H705.271V530.017H774.511V525.202Z" fill="#F2F2F2"/>
<path d="M801.842 537.24H705.271V542.056H801.842V537.24Z" fill="#F2F2F2"/>
<path d="M769.044 380.741C773.07 380.741 776.333 376.43 776.333 371.111C776.333 365.792 773.07 361.48 769.044 361.48C765.019 361.48 761.756 365.792 761.756 371.111C761.756 376.43 765.019 380.741 769.044 380.741Z" fill="#3F3D56"/>
</g>
<defs>
<clipPath id="clip0">
<rect width="1093" height="668" fill="white"/>
</clipPath>
</defs>
</svg>
